<svg width="600" height="80" viewBox="0 0 600 80" fill="none" xmlns="http://www.w3.org/2000/svg">
<path fill-rule="evenodd" clip-rule="evenodd" d="M40 40V26.7259C47.0379 27.3571 52.6429 32.9621 53.2741 40H40ZM38.6735 23.3333C37.5651 23.3333 36.6667 24.2318 36.6667 25.3401V26.7582C29.1668 27.5873 23.3333 33.9457 23.3333 41.6667C23.3333 49.9509 30.0491 56.6667 38.3333 56.6667C46.0543 56.6667 52.4127 50.8332 53.2418 43.3333H54.6599C55.7682 43.3333 56.6667 42.4349 56.6667 41.3265C56.6667 31.3892 48.6108 23.3333 38.6735 23.3333ZM49.8819 43.3333C49.0731 48.9872 44.2108 53.3333 38.3333 53.3333C31.89 53.3333 26.6667 48.11 26.6667 41.6667C26.6667 35.7892 31.0128 30.9269 36.6667 30.1181V40C36.6667 41.8409 38.1591 43.3333 40 43.3333H49.8819Z" fill="black"/>
<path fill-rule="evenodd" clip-rule="evenodd" d="M133.333 23.3333C132.413 23.3333 131.667 24.0795 131.667 25V26.6667H130C127.239 26.6667 125 28.9052 125 31.6667V35V51.6667C125 54.4281 127.239 56.6667 130 56.6667H150C152.761 56.6667 155 54.4281 155 51.6667V35V31.6667C155 28.9052 152.761 26.6667 150 26.6667H148.333V25C148.333 24.0795 147.587 23.3333 146.667 23.3333C145.746 23.3333 145 24.0795 145 25V26.6667H135V25C135 24.0795 134.254 23.3333 133.333 23.3333ZM146.667 30H133.333H130C129.08 30 128.333 30.7462 128.333 31.6667V33.3333H151.667V31.6667C151.667 30.7462 150.92 30 150 30H146.667ZM128.333 51.6667V36.6667L151.667 36.6667V51.6667C151.667 52.5871 150.92 53.3333 150 53.3333H130C129.08 53.3333 128.333 52.5871 128.333 51.6667ZM134.943 43.5338L134.939 43.5493L134.936 43.5572C134.936 43.5589 134.935 43.5597 134.935 43.5596L134.937 43.5561C134.703 44.337 133.885 44.7899 133.097 44.5698C132.299 44.3471 131.833 43.5197 132.055 42.7218L133.5 43.125C132.055 42.7218 132.055 42.7211 132.056 42.7203L132.056 42.7188L132.057 42.7156L132.059 42.7087L132.064 42.6927L132.076 42.6525C132.086 42.6223 132.098 42.5849 132.114 42.5414C132.145 42.4548 132.189 42.3423 132.249 42.2125C132.369 41.9559 132.559 41.6133 132.85 41.2663C133.457 40.5416 134.479 39.8333 136 39.8333C137.765 39.8333 138.798 41.015 139.252 42.0919C139.842 43.4887 139.348 44.7462 138.754 45.6117C138.4 46.1274 137.95 46.5974 137.52 47H138.334C139.162 47 139.834 47.6716 139.834 48.5C139.834 49.3284 139.162 50 138.334 50H133.5C132.873 50 132.312 49.6097 132.094 49.0216C131.875 48.4335 132.046 47.7717 132.522 47.3627L134.814 45.3915C135.439 44.8544 135.962 44.3782 136.28 43.9142C136.578 43.4802 136.519 43.3309 136.488 43.258C136.408 43.0683 136.317 42.9599 136.251 42.9072C136.204 42.8699 136.141 42.8333 136 42.8333C135.521 42.8333 135.293 43.0209 135.15 43.1921C135.066 43.2929 135.006 43.3983 134.969 43.4776C134.952 43.5158 134.941 43.5432 134.937 43.5546L134.937 43.5561L134.939 43.5493L134.939 43.547L134.942 43.5387L134.943 43.5338ZM142 39.8333C141.172 39.8333 140.5 40.5049 140.5 41.3333C140.5 42.1618 141.172 42.8333 142 42.8333H143.815L141.474 47.8674C141.124 48.6186 141.45 49.5107 142.201 49.8601C142.952 50.2095 143.844 49.8837 144.194 49.1326L147.527 41.9659C147.743 41.5014 147.707 40.9587 147.432 40.5268C147.156 40.0948 146.679 39.8333 146.167 39.8333H142Z" fill="black"/>
<path fill-rule="evenodd" clip-rule="evenodd" d="M245 23.3333C245.92 23.3333 246.667 24.0795 246.667 25V26.6667C252.19 26.6667 256.667 31.1438 256.667 36.6667V45C256.667 46.8409 255.174 48.3333 253.333 48.3333H241.667V53.3333C241.667 54.2538 240.92 55 240 55C239.08 55 238.333 54.2538 238.333 53.3333V48.3333H236.667H233.333H230H226.667C224.826 48.3333 223.333 46.8409 223.333 45V33.3333C223.333 29.6514 226.318 26.6667 230 26.6667H243.333V25C243.333 24.0795 244.08 23.3333 245 23.3333ZM240 45H253.333V36.6667C253.333 32.9848 250.349 30 246.667 30V35.4459C247.663 36.0223 248.333 37.0995 248.333 38.3333C248.333 40.1743 246.841 41.6667 245 41.6667C243.159 41.6667 241.667 40.1743 241.667 38.3333C241.667 37.0995 242.337 36.0223 243.333 35.4459V30H235.774C236.342 30.9811 236.667 32.12 236.667 33.3344V33.3577V33.3811V33.4043V33.4276V33.4509V33.4741V33.4973V33.5205V33.5436V33.5668V33.5899V33.613V33.6361V33.6592V33.6822V33.7052V33.7282V33.7512V33.7742V33.7971V33.82V33.8429V33.8658V33.8887V33.9115V33.9343V33.9571V33.9799V34.0027V34.0254V34.0482V34.0709V34.0936V34.1163V34.1389V34.1616V34.1842V34.2068V34.2294V34.2519V34.2745V34.297V34.3196V34.3421V34.3645V34.387V34.4095V34.4319V34.4543V34.4767V34.4991V34.5215V34.5438V34.5662V34.5885V34.6108V34.6331V34.6554V34.6777V34.6999V34.7221V34.7444V34.7666V34.7888V34.8109V34.8331V34.8552V34.8774V34.8995V34.9216V34.9437V34.9658V34.9878V35.0099V35.0319V35.0539V35.0759V35.0979V35.1199V35.1419V35.1638V35.1858V35.2077V35.2296V35.2516V35.2735V35.2953V35.3172V35.3391V35.3609V35.3828V35.4046V35.4264V35.4482V35.47V35.4918V35.5136V35.5353V35.5571V35.5788V35.6005V35.6223V35.644V35.6657V35.6874V35.709V35.7307V35.7524V35.774V35.7957V35.8173V35.8389V35.8605V35.8821V35.9037V35.9253V35.9469V35.9685V35.99V36.0116V36.0331V36.0547V36.0762V36.0977V36.1193V36.1408V36.1623V36.1838V36.2052V36.2267V36.2482V36.2697V36.2911V36.3126V36.334V36.3555V36.3769V36.3983V36.4198V36.4412V36.4626V36.484V36.5054V36.5268V36.5482V36.5696V36.5909V36.6123V36.6337V36.655V36.6764V36.6978V36.7191V36.7405V36.7618V36.7831V36.8045V36.8258V36.8471V36.8685V36.8898V36.9111V36.9324V36.9537V36.975V36.9963V37.0176V37.0389V37.0602V37.0815V37.1028V37.1241V37.1454V37.1667V37.188V37.2093V37.2305V37.2518V37.2731V37.2944V37.3157V37.3369V37.3582V37.3795V37.4007V37.422V37.4433V37.4646V37.4858V37.5071V37.5284V37.5497V37.5709V37.5922V37.6135V37.6347V37.656V37.6773V37.6986V37.7198V37.7411V37.7624V37.7837V37.805V37.8263V37.8475V37.8688V37.8901V37.9114V37.9327V37.954V37.9753V37.9966V38.0179V38.0392V38.0605V38.0818V38.1032V38.1245V38.1458V38.1671V38.1885V38.2098V38.2311V38.2525V38.2738V38.2952V38.3165V38.3379V38.3592V38.3806V38.402V38.4234V38.4447V38.4661V38.4875V38.5089V38.5303V38.5517V38.5731V38.5946V38.616V38.6374V38.6589V38.6803V38.7018V38.7232V38.7447V38.7662V38.7876V38.8091V38.8306V38.8521V38.8736V38.8951V38.9166V38.9382V38.9597V38.9813V39.0028V39.0244V39.0459V39.0675V39.0891V39.1107V39.1323V39.1539V39.1755V39.1972V39.2188V39.2405V39.2621V39.2838V39.3055V39.3271V39.3488V39.3705V39.3923V39.414V39.4357V39.4575V39.4792V39.501V39.5228V39.5446V39.5664V39.5882V39.61V39.6318V39.6537V39.6755V39.6974V39.7193V39.7412V39.7631V39.785V39.8069V39.8289V39.8508V39.8728V39.8948V39.9168V39.9388V39.9608V39.9828V40.0049V40.0269V40.049V40.0711V40.0932V40.1153V40.1374V40.1596V40.1817V40.2039V40.2261V40.2483V40.2705V40.2927V40.315V40.3372V40.3595V40.3818V40.4041V40.4264V40.4487V40.4711V40.4935V40.5158V40.5382V40.5607V40.5831V40.6055V40.628V40.6505V40.673V40.6955V40.718V40.7406V40.7631V40.7857V40.8083V40.8309V40.8536V40.8762V40.8989V40.9216V40.9443V40.967V40.9898V41.0125V41.0353V41.0581V41.0809V41.1038V41.1266V41.1495V41.1724V41.1953V41.2182V41.2412V41.2642V41.2872V41.3102V41.3332V41.3563V41.3793V41.4024V41.4255V41.4487V41.4718V41.495V41.5182V41.5414V41.5647V41.5879V41.6112V41.6345V41.6579V41.6812V41.7046V41.728V41.7514V41.7748V41.7983V41.8218V41.8453V41.8688V41.8923V41.9159V41.9395V41.9631V41.9868V42.0104V42.0341V42.0578V42.0816V42.1053V42.1291V42.1529V42.1768V42.2006V42.2245V42.2484V42.2723V42.2963V42.3203V42.3443V42.3683V42.3924V42.4165V42.4406V42.4647V42.4889V42.513V42.5373V42.5615V42.5858V42.6101V42.6344V42.6587V42.6831V42.7075V42.7319V42.7563V42.7808V42.8053V42.8299V42.8544V42.879V42.9036V42.9283V42.9529V42.9776V43.0024V43.0271V43.0519V43.0767V43.1015V43.1264V43.1513V43.1762V43.2012V43.2262V43.2512V43.2762V43.3013V43.3264V43.3516V43.3767V43.4019V43.4271V43.4524V43.4777V43.503V43.5283V43.5537V43.5791V43.6045V43.63V43.6555V43.681V43.7066V43.7322V43.7578V43.7835V43.8092V43.8349V43.8606V43.8864V43.9122V43.9381V43.964V43.9899V44.0158V44.0418V44.0678V44.0939V44.12V44.1461V44.1722V44.1984V44.2246V44.2509V44.2771V44.3035V44.3298V44.3562V44.3826V44.4091V44.4356V44.4621V44.4886V44.5152V44.5419V44.5685V44.5952V44.6219V44.6487V44.6755V44.7024V44.7292V44.7561V44.7831V44.8101V44.8371V44.8642V44.8913V44.9184V44.9455V44.9728V45H240ZM233.333 41.6667V45H230H226.667V41.6667V33.3333C226.667 31.4924 228.159 30 230 30C231.841 30 233.333 31.4935 233.333 33.3344V41.6667Z" fill="black"/>
<path fill-rule="evenodd" clip-rule="evenodd" d="M330.086 24.473C329.794 25.3463 330.266 26.2901 331.14 26.5812L341.396 30.0001H328.333C325.572 30.0001 323.333 32.2387 323.333 35.0001V48.3334C323.333 51.0948 325.572 53.3334 328.333 53.3334V55.0001C328.333 55.9206 329.08 56.6667 330 56.6667L350 56.6667C350.442 56.6667 350.866 56.4912 351.179 56.1786C351.491 55.866 351.667 55.4421 351.667 55.0001V53.3334C354.428 53.3334 356.667 51.0948 356.667 48.3334V35.0001C356.667 32.3382 354.587 30.1621 351.963 30.0087L332.194 23.4189C331.321 23.1279 330.377 23.5998 330.086 24.473ZM350.005 50.0001C350.003 50.0001 350.002 50.0001 350 50.0001C349.998 50.0001 349.997 50.0001 349.995 50.0001H330.005C330.003 50.0001 330.002 50.0001 330 50.0001C329.998 50.0001 329.997 50.0001 329.995 50.0001H328.333C327.413 50.0001 326.667 49.2539 326.667 48.3334V35.0001C326.667 34.0796 327.413 33.3334 328.333 33.3334H351.628C351.65 33.3339 351.672 33.334 351.694 33.3336C352.602 33.3484 353.333 34.0888 353.333 35.0001V48.3334C353.333 49.2539 352.587 50.0001 351.667 50.0001H350.005ZM350 35.0001C349.08 35.0001 348.333 35.7463 348.333 36.6667C348.333 37.5872 349.08 38.3334 350 38.3334C350.921 38.3334 351.667 37.5872 351.667 36.6667C351.667 35.7463 350.921 35.0001 350 35.0001ZM348.333 41.6667C348.333 40.7463 349.08 40.0001 350 40.0001C350.921 40.0001 351.667 40.7463 351.667 41.6667C351.667 42.5872 350.921 43.3334 350 43.3334C349.08 43.3334 348.333 42.5872 348.333 41.6667ZM331.667 35.0001C329.826 35.0001 328.333 36.4925 328.333 38.3334V45.0001C328.333 46.841 329.826 48.3334 331.667 48.3334H343.333C345.174 48.3334 346.667 46.841 346.667 45.0001V38.3334C346.667 36.4925 345.174 35.0001 343.333 35.0001H331.667ZM331.667 38.3334H335H340H343.333V41.6667V45.0001H340H335H331.667V41.6667V38.3334Z" fill="black"/>
<path fill-rule="evenodd" clip-rule="evenodd" d="M526.667 25C524.826 25 523.333 26.4924 523.333 28.3333V46.6667C523.333 48.5076 524.826 50 526.667 50H535L532.333 52C531.597 52.5523 531.448 53.597 532 54.3333C532.552 55.0697 533.597 55.219 534.333 54.6667L540 50.4167L545.667 54.6667C546.403 55.219 547.448 55.0697 548 54.3333C548.552 53.597 548.403 52.5523 547.667 52L545 50H553.333C555.174 50 556.667 48.5076 556.667 46.6667V28.3333C556.667 26.4924 555.174 25 553.333 25H526.667ZM539.983 46.6667H540.019H550H553.333V43.3333V31.6667V28.3333H550H530H526.667V31.6667V43.3333V46.6667H530H539.981H539.983ZM534.583 35.5C535.734 35.5 536.667 36.4327 536.667 37.5833C536.667 38.7339 535.734 39.6667 534.583 39.6667C533.433 39.6667 532.5 38.7339 532.5 37.5833C532.5 36.4327 533.433 35.5 534.583 35.5ZM530 37.5833C530 40.1146 532.052 42.1667 534.583 42.1667C537.115 42.1667 539.167 40.1146 539.167 37.5833C539.167 35.052 537.115 33 534.583 33C532.052 33 530 35.052 530 37.5833ZM543.333 35.8333C544.254 35.8333 545 36.5795 545 37.5V41.6667C545 42.5871 544.254 43.3333 543.333 43.3333C542.413 43.3333 541.667 42.5871 541.667 41.6667V37.5C541.667 36.5795 542.413 35.8333 543.333 35.8333ZM550 33.3333C550 32.4129 549.254 31.6667 548.333 31.6667C547.413 31.6667 546.667 32.4129 546.667 33.3333V41.6667C546.667 42.5871 547.413 43.3333 548.333 43.3333C549.254 43.3333 550 42.5871 550 41.6667V33.3333Z" fill="black"/>
<path fill-rule="evenodd" clip-rule="evenodd" d="M442.769 23.3399C443.732 23.2583 444.581 23.9483 444.665 24.8811L444.97 28.259C445.054 29.1918 444.342 30.0141 443.379 30.0957C442.417 30.1774 441.568 29.4873 441.484 28.5545L441.179 25.1766C441.094 24.2438 441.807 23.4215 442.769 23.3399ZM451.671 29.478C452.292 28.7607 452.196 27.6913 451.455 27.0894C450.715 26.4875 449.611 26.5811 448.99 27.2984L446.74 29.8959C446.119 30.6132 446.216 31.6826 446.956 32.2845C447.696 32.8863 448.8 32.7928 449.421 32.0755L451.671 29.478ZM445.462 35.6847C445.687 35.0258 445.474 34.301 444.925 33.855C444.377 33.4091 443.603 33.3319 442.972 33.6603L424.255 43.4034C423.654 43.7161 423.296 44.3386 423.336 44.9982C423.377 45.6578 423.81 46.2344 424.445 46.4755L427.335 47.5725L424.702 50.612C424.081 51.3293 424.178 52.3987 424.918 53.0006L428.939 56.27C429.68 56.8718 430.783 56.7783 431.405 56.061L434.037 53.0215L435.654 55.5883C436.009 56.1523 436.67 56.465 437.348 56.3893C438.025 56.3137 438.596 55.8635 438.809 55.2359L445.462 35.6847ZM430.879 45.2762L429.244 44.6556L440.765 38.6583L436.67 50.693L435.756 49.2409C435.462 48.775 434.955 48.4745 434.393 48.4335C433.831 48.3926 433.284 48.6162 432.921 49.0344L429.848 52.5826L428.508 51.4929L431.581 47.9446C431.943 47.5264 432.075 46.9649 431.936 46.436C431.797 45.907 431.403 45.4754 430.879 45.2762ZM454.764 33.3079C455.727 33.2263 456.576 33.9163 456.66 34.8491C456.744 35.7819 456.032 36.6043 455.069 36.6859L451.583 36.9814C450.62 37.063 449.771 36.373 449.687 35.4402C449.603 34.5074 450.315 33.6851 451.278 33.6035L454.764 33.3079Z" fill="black"/>
</svg>
