<svg width="38" height="38" viewBox="0 0 38 38" fill="none" xmlns="http://www.w3.org/2000/svg">
<path fill-rule="evenodd" clip-rule="evenodd" d="M0 0H5.42857V5.42857H0V0ZM5.4286 5.42855H10.8572V10.8571H5.4286V5.42855ZM5.42857 32.5714H0V38H5.42857V32.5714ZM32.5714 32.5714H38V38H32.5714V32.5714ZM16.2857 10.8572H10.8571V16.2857H16.2857V10.8572ZM16.2857 16.2857H21.7143V21.7143H16.2857V16.2857ZM27.1429 21.7143H21.7143V27.1429H27.1429V21.7143ZM27.1429 27.1429H32.5715V32.5714H27.1429V27.1429ZM27.1428 5.42855H32.5714V10.8571H27.1428V5.42855ZM38 0H32.5714V5.42857H38V0ZM21.7143 10.8572H27.1429V16.2857H21.7143V10.8572ZM16.2857 21.7143H10.8571V27.1429H16.2857V21.7143ZM5.42853 27.1429H10.8571V32.5714H5.42853V27.1429Z" fill="black"/>
</svg>
