<svg width="240" height="60" viewBox="0 0 240 60" fill="none" xmlns="http://www.w3.org/2000/svg">
<path d="M24.575 30.2625C24.6918 30.3784 24.8303 30.47 24.9826 30.5322C25.1349 30.5944 25.298 30.626 25.4625 30.625C25.627 30.626 25.7901 30.5944 25.9424 30.5322C26.0947 30.47 26.2332 30.3784 26.35 30.2625L28.225 28.3875C28.3422 28.2713 28.4352 28.133 28.4986 27.9807C28.5621 27.8284 28.5948 27.665 28.5948 27.5C28.5948 27.335 28.5621 27.1716 28.4986 27.0193C28.4352 26.867 28.3422 26.7287 28.225 26.6125L26.35 24.7375C26.1146 24.5021 25.7954 24.3699 25.4625 24.3699C25.1296 24.3699 24.8104 24.5021 24.575 24.7375C24.3396 24.9729 24.2074 25.2921 24.2074 25.625C24.2074 25.9579 24.3396 26.2771 24.575 26.5125L25.575 27.5L24.575 28.4875C24.4578 28.6037 24.3649 28.742 24.3014 28.8943C24.2379 29.0466 24.2053 29.21 24.2053 29.375C24.2053 29.54 24.2379 29.7034 24.3014 29.8557C24.3649 30.008 24.4578 30.1463 24.575 30.2625ZM33.95 30.2625C34.0668 30.3784 34.2053 30.47 34.3576 30.5322C34.5099 30.5944 34.673 30.626 34.8375 30.625C35.002 30.626 35.1651 30.5944 35.3174 30.5322C35.4697 30.47 35.6082 30.3784 35.725 30.2625C35.8422 30.1463 35.9352 30.008 35.9986 29.8557C36.0621 29.7034 36.0948 29.54 36.0948 29.375C36.0948 29.21 36.0621 29.0466 35.9986 28.8943C35.9352 28.742 35.8422 28.6037 35.725 28.4875L34.7375 27.5L35.725 26.5125C35.8416 26.396 35.934 26.2576 35.9971 26.1053C36.0602 25.953 36.0926 25.7898 36.0926 25.625C36.0926 25.4602 36.0602 25.297 35.9971 25.1447C35.934 24.9924 35.8416 24.854 35.725 24.7375C35.6085 24.621 35.4701 24.5285 35.3178 24.4654C35.1655 24.4024 35.0023 24.3699 34.8375 24.3699C34.6727 24.3699 34.5095 24.4024 34.3572 24.4654C34.2049 24.5285 34.0666 24.621 33.95 24.7375L32.075 26.6125C31.9578 26.7287 31.8649 26.867 31.8014 27.0193C31.7379 27.1716 31.7053 27.335 31.7053 27.5C31.7053 27.665 31.7379 27.8284 31.8014 27.9807C31.8649 28.133 31.9578 28.2713 32.075 28.3875L33.95 30.2625ZM34.0875 32.7625C33.8711 32.6002 33.608 32.5125 33.3375 32.5125C33.067 32.5125 32.8039 32.6002 32.5875 32.7625L31.6625 33.45L30.75 32.7625C30.5336 32.6002 30.2705 32.5125 30 32.5125C29.7295 32.5125 29.4664 32.6002 29.25 32.7625L28.3375 33.45L27.4125 32.7625C27.1961 32.6002 26.933 32.5125 26.6625 32.5125C26.392 32.5125 26.1289 32.6002 25.9125 32.7625L24.25 34.0125C24.1187 34.111 24.008 34.2344 23.9244 34.3756C23.8408 34.5169 23.7858 34.6732 23.7626 34.8357C23.7157 35.1639 23.8011 35.4973 24 35.7625C24.1989 36.0277 24.495 36.2031 24.8232 36.2499C25.1514 36.2968 25.4848 36.2114 25.75 36.0125L26.6625 35.325L27.5875 36.0125C27.6349 36.0425 27.6851 36.0676 27.7375 36.0875C27.824 36.1337 27.9166 36.1673 28.0125 36.1875H28.175H28.4625H28.6125C28.7601 36.144 28.8994 36.0764 29.025 35.9875L29.9375 35.3L30.85 35.9875C31.0276 36.1188 31.2369 36.2007 31.4565 36.2249C31.676 36.249 31.8981 36.2146 32.1 36.125L32.225 36.0625C32.2746 36.0451 32.321 36.0197 32.3625 35.9875L33.2875 35.3L34.2 35.9875C34.4164 36.1498 34.6795 36.2375 34.95 36.2375C35.1441 36.2375 35.3355 36.1923 35.509 36.1055C35.6826 36.0188 35.8336 35.8927 35.95 35.7375C36.0485 35.6062 36.1202 35.4567 36.1609 35.2977C36.2016 35.1387 36.2107 34.9732 36.1874 34.8107C36.1642 34.6482 36.1092 34.4919 36.0256 34.3506C35.942 34.2094 35.8313 34.086 35.7 33.9875L34.0875 32.7625ZM30 17.5C27.5277 17.5 25.111 18.2331 23.0554 19.6066C20.9998 20.9801 19.3976 22.9324 18.4515 25.2165C17.5054 27.5005 17.2579 30.0139 17.7402 32.4386C18.2225 34.8634 19.413 37.0907 21.1612 38.8388C22.9093 40.587 25.1366 41.7775 27.5614 42.2598C29.9861 42.7421 32.4995 42.4946 34.7835 41.5485C37.0676 40.6024 39.0199 39.0002 40.3934 36.9446C41.7669 34.889 42.5 32.4723 42.5 30C42.5 28.3585 42.1767 26.733 41.5485 25.2165C40.9203 23.6999 39.9996 22.3219 38.8388 21.1612C37.6781 20.0004 36.3001 19.0797 34.7835 18.4515C33.267 17.8233 31.6415 17.5 30 17.5V17.5ZM30 40C28.0222 40 26.0888 39.4135 24.4443 38.3147C22.7998 37.2159 21.5181 35.6541 20.7612 33.8268C20.0043 31.9996 19.8063 29.9889 20.1922 28.0491C20.578 26.1093 21.5304 24.3275 22.9289 22.9289C24.3275 21.5304 26.1093 20.578 28.0491 20.1921C29.9889 19.8063 31.9996 20.0043 33.8268 20.7612C35.6541 21.5181 37.2159 22.7998 38.3147 24.4443C39.4135 26.0888 40 28.0222 40 30C40 32.6522 38.9464 35.1957 37.0711 37.0711C35.1957 38.9464 32.6522 40 30 40V40Z" fill="#DC7B75"/>
<path d="M112.95 32.7875C112.114 33.4612 111.073 33.8286 110 33.8286C108.927 33.8286 107.886 33.4612 107.05 32.7875C106.795 32.5753 106.466 32.4732 106.135 32.5037C105.805 32.5342 105.5 32.6947 105.288 32.95C105.075 33.2053 104.973 33.5344 105.004 33.8649C105.034 34.1954 105.195 34.5003 105.45 34.7125C106.727 35.7783 108.337 36.362 110 36.362C111.663 36.362 113.273 35.7783 114.55 34.7125C114.805 34.5003 114.966 34.1954 114.996 33.8649C115.027 33.5344 114.925 33.2053 114.713 32.95C114.607 32.8236 114.479 32.7191 114.333 32.6426C114.188 32.566 114.029 32.5188 113.865 32.5037C113.534 32.4732 113.205 32.5753 112.95 32.7875V32.7875ZM106.25 29.6375L106.613 29.2625L106.975 29.6375C107.091 29.7547 107.229 29.8477 107.382 29.9111C107.534 29.9746 107.697 30.0072 107.863 30.0072C108.028 30.0072 108.191 29.9746 108.343 29.9111C108.496 29.8477 108.634 29.7547 108.75 29.6375C108.867 29.5213 108.96 29.383 109.024 29.2307C109.087 29.0784 109.12 28.915 109.12 28.75C109.12 28.585 109.087 28.4216 109.024 28.2693C108.96 28.117 108.867 27.9787 108.75 27.8625L108.375 27.5L108.75 27.1375C108.985 26.8955 109.115 26.5699 109.11 26.2323C109.106 25.8948 108.967 25.5729 108.725 25.3375C108.483 25.1021 108.157 24.9725 107.82 24.9772C107.482 24.9819 107.16 25.1205 106.925 25.3625L106.563 25.7375L106.25 25.3625C106.015 25.1205 105.693 24.9819 105.355 24.9772C105.018 24.9725 104.692 25.1021 104.45 25.3375C104.208 25.5729 104.069 25.8948 104.065 26.2323C104.06 26.5699 104.19 26.8955 104.425 27.1375L104.8 27.5L104.425 27.8625C104.308 27.9787 104.215 28.117 104.151 28.2693C104.088 28.4216 104.055 28.585 104.055 28.75C104.055 28.915 104.088 29.0784 104.151 29.2307C104.215 29.383 104.308 29.5213 104.425 29.6375C104.541 29.7547 104.679 29.8477 104.832 29.9111C104.984 29.9746 105.147 30.0072 105.313 30.0072C105.478 30.0072 105.641 29.9746 105.793 29.9111C105.946 29.8477 106.084 29.7547 106.2 29.6375H106.25ZM110 17.5C107.528 17.5 105.111 18.2331 103.055 19.6066C101 20.9801 99.3976 22.9324 98.4515 25.2165C97.5054 27.5005 97.2579 30.0139 97.7402 32.4386C98.2225 34.8634 99.413 37.0907 101.161 38.8388C102.909 40.587 105.137 41.7775 107.561 42.2598C109.986 42.7421 112.499 42.4946 114.784 41.5485C117.068 40.6024 119.02 39.0002 120.393 36.9446C121.767 34.889 122.5 32.4723 122.5 30C122.5 28.3585 122.177 26.733 121.548 25.2165C120.92 23.6999 120 22.3219 118.839 21.1612C117.678 20.0004 116.3 19.0797 114.784 18.4515C113.267 17.8233 111.642 17.5 110 17.5V17.5ZM110 40C108.022 40 106.089 39.4135 104.444 38.3147C102.8 37.2159 101.518 35.6541 100.761 33.8268C100.004 31.9996 99.8063 29.9889 100.192 28.0491C100.578 26.1093 101.53 24.3275 102.929 22.9289C104.327 21.5304 106.109 20.578 108.049 20.1921C109.989 19.8063 112 20.0043 113.827 20.7612C115.654 21.5181 117.216 22.7998 118.315 24.4443C119.414 26.0888 120 28.0222 120 30C120 32.6522 118.946 35.1957 117.071 37.0711C115.196 38.9464 112.652 40 110 40V40ZM116.25 25.3625C116.134 25.2453 115.996 25.1523 115.843 25.0889C115.691 25.0254 115.528 24.9928 115.363 24.9928C115.197 24.9928 115.034 25.0254 114.882 25.0889C114.729 25.1523 114.591 25.2453 114.475 25.3625L114.113 25.7375L113.75 25.3625C113.515 25.1271 113.195 24.9949 112.863 24.9949C112.53 24.9949 112.21 25.1271 111.975 25.3625C111.74 25.5979 111.607 25.9171 111.607 26.25C111.607 26.5829 111.74 26.9021 111.975 27.1375L112.35 27.5L111.975 27.8625C111.858 27.9787 111.765 28.117 111.701 28.2693C111.638 28.4216 111.605 28.585 111.605 28.75C111.605 28.915 111.638 29.0784 111.701 29.2307C111.765 29.383 111.858 29.5213 111.975 29.6375C112.091 29.7547 112.229 29.8477 112.382 29.9111C112.534 29.9746 112.697 30.0072 112.863 30.0072C113.028 30.0072 113.191 29.9746 113.343 29.9111C113.496 29.8477 113.634 29.7547 113.75 29.6375L114.113 29.2625L114.475 29.6375C114.591 29.7547 114.729 29.8477 114.882 29.9111C115.034 29.9746 115.197 30.0072 115.363 30.0072C115.528 30.0072 115.691 29.9746 115.843 29.9111C115.996 29.8477 116.134 29.7547 116.25 29.6375C116.367 29.5213 116.46 29.383 116.524 29.2307C116.587 29.0784 116.62 28.915 116.62 28.75C116.62 28.585 116.587 28.4216 116.524 28.2693C116.46 28.117 116.367 27.9787 116.25 27.8625L115.875 27.5L116.25 27.1375C116.367 27.0213 116.46 26.883 116.524 26.7307C116.587 26.5784 116.62 26.415 116.62 26.25C116.62 26.085 116.587 25.9216 116.524 25.7693C116.46 25.617 116.367 25.4787 116.25 25.3625Z" fill="#6FCB6A"/>
<path d="M190 17.5C187.528 17.5 185.111 18.2331 183.055 19.6066C181 20.9801 179.398 22.9324 178.452 25.2165C177.505 27.5005 177.258 30.0139 177.74 32.4386C178.222 34.8634 179.413 37.0907 181.161 38.8388C182.909 40.587 185.137 41.7775 187.561 42.2598C189.986 42.7421 192.499 42.4946 194.784 41.5485C197.068 40.6024 199.02 39.0002 200.393 36.9446C201.767 34.889 202.5 32.4723 202.5 30C202.5 28.3585 202.177 26.733 201.548 25.2165C200.92 23.6999 200 22.3219 198.839 21.1612C197.678 20.0004 196.3 19.0797 194.784 18.4515C193.267 17.8233 191.642 17.5 190 17.5V17.5ZM190 40C188.022 40 186.089 39.4135 184.444 38.3147C182.8 37.2159 181.518 35.6541 180.761 33.8268C180.004 31.9996 179.806 29.9889 180.192 28.0491C180.578 26.1093 181.53 24.3275 182.929 22.9289C184.327 21.5304 186.109 20.578 188.049 20.1921C189.989 19.8063 192 20.0043 193.827 20.7612C195.654 21.5181 197.216 22.7998 198.315 24.4443C199.414 26.0888 200 28.0222 200 30C200 32.6522 198.946 35.1957 197.071 37.0711C195.196 38.9464 192.652 40 190 40V40ZM197.025 26.4125C196.31 25.7337 195.361 25.3553 194.375 25.3553C193.389 25.3553 192.44 25.7337 191.725 26.4125C191.52 26.6516 191.413 26.9592 191.425 27.2738C191.438 27.5884 191.568 27.8868 191.791 28.1095C192.013 28.3321 192.312 28.4625 192.626 28.4746C192.941 28.4868 193.248 28.3798 193.488 28.175C193.604 28.0578 193.742 27.9648 193.894 27.9014C194.047 27.8379 194.21 27.8053 194.375 27.8053C194.54 27.8053 194.703 27.8379 194.856 27.9014C195.008 27.9648 195.146 28.0578 195.262 28.175C195.497 28.4078 195.814 28.5385 196.144 28.5385C196.474 28.5385 196.791 28.4078 197.025 28.175C197.258 27.9408 197.388 27.624 197.388 27.2938C197.388 26.9635 197.258 26.6467 197.025 26.4125V26.4125ZM186.25 28.75C186.497 28.75 186.739 28.6767 186.944 28.5393C187.15 28.402 187.31 28.2068 187.405 27.9784C187.499 27.7499 187.524 27.4986 187.476 27.2561C187.428 27.0137 187.309 26.7909 187.134 26.6161C186.959 26.4413 186.736 26.3222 186.494 26.274C186.251 26.2258 186 26.2505 185.772 26.3452C185.543 26.4398 185.348 26.6 185.211 26.8055C185.073 27.0111 185 27.2528 185 27.5C185 27.8315 185.132 28.1495 185.366 28.3839C185.601 28.6183 185.918 28.75 186.25 28.75ZM193.75 31.25H186.25C185.918 31.25 185.601 31.3817 185.366 31.6161C185.132 31.8505 185 32.1685 185 32.5C185 32.8315 185.132 33.1495 185.366 33.3839C185.601 33.6183 185.918 33.75 186.25 33.75C186.25 34.7446 186.645 35.6984 187.348 36.4017C188.052 37.1049 189.005 37.5 190 37.5C190.995 37.5 191.948 37.1049 192.652 36.4017C193.355 35.6984 193.75 34.7446 193.75 33.75C194.082 33.75 194.399 33.6183 194.634 33.3839C194.868 33.1495 195 32.8315 195 32.5C195 32.1685 194.868 31.8505 194.634 31.6161C194.399 31.3817 194.082 31.25 193.75 31.25ZM190 35C189.668 35 189.351 34.8683 189.116 34.6339C188.882 34.3995 188.75 34.0815 188.75 33.75H191.25C191.25 34.0815 191.118 34.3995 190.884 34.6339C190.649 34.8683 190.332 35 190 35Z" fill="#CC79C7"/>
</svg>
