<svg width="14" height="14" viewBox="0 0 14 14" fill="none" xmlns="http://www.w3.org/2000/svg">
<path d="M7.28532 1.49615L8.36549 4.82057C8.53952 5.3562 9.03867 5.71885 9.60186 5.71885H13.0974C13.388 5.71885 13.5088 6.09073 13.2737 6.26155L10.4458 8.31616C9.99014 8.64719 9.79949 9.23397 9.97353 9.7696L11.0537 13.094C11.1435 13.3704 10.8272 13.6003 10.592 13.4294L7.76412 11.3748C7.30849 11.0438 6.69151 11.0438 6.23588 11.3748L3.40796 13.4294C3.17284 13.6003 2.8565 13.3704 2.94631 13.094L4.02648 9.7696C4.20051 9.23397 4.00986 8.64719 3.55422 8.31616L0.726304 6.26155C0.491189 6.09073 0.612023 5.71885 0.902639 5.71885H4.39814C4.96133 5.71885 5.46048 5.3562 5.63451 4.82057L6.71468 1.49615C6.80449 1.21976 7.19551 1.21976 7.28532 1.49615Z" stroke="#F1CB64"/>
</svg>
