<svg width="480" height="60" viewBox="0 0 480 60" fill="none" xmlns="http://www.w3.org/2000/svg">
<path fill-rule="evenodd" clip-rule="evenodd" d="M30 30V20.0444C35.2784 20.5178 39.4822 24.7216 39.9556 30H30ZM29.0051 17.5C28.1739 17.5 27.5 18.1739 27.5 19.0051V20.0687C21.8751 20.6905 17.5 25.4593 17.5 31.25C17.5 37.4632 22.5368 42.5 28.75 42.5C34.5407 42.5 39.3095 38.1249 39.9313 32.5H40.9949C41.8261 32.5 42.5 31.8261 42.5 30.9949C42.5 23.5419 36.4581 17.5 29.0051 17.5ZM37.4114 32.5C36.8049 36.7404 33.1581 40 28.75 40C23.9175 40 20 36.0825 20 31.25C20 26.8419 23.2596 23.1951 27.5 22.5886V30C27.5 31.3807 28.6193 32.5 30 32.5H37.4114Z" fill="white"/>
<path fill-rule="evenodd" clip-rule="evenodd" d="M105 17.5C104.31 17.5 103.75 18.0596 103.75 18.75V20H102.5C100.429 20 98.75 21.6789 98.75 23.75V26.25V38.75C98.75 40.8211 100.429 42.5 102.5 42.5H117.5C119.571 42.5 121.25 40.8211 121.25 38.75V26.25V23.75C121.25 21.6789 119.571 20 117.5 20H116.25V18.75C116.25 18.0596 115.69 17.5 115 17.5C114.31 17.5 113.75 18.0596 113.75 18.75V20H106.25V18.75C106.25 18.0596 105.69 17.5 105 17.5ZM115 22.5H105H102.5C101.81 22.5 101.25 23.0596 101.25 23.75V25H118.75V23.75C118.75 23.0596 118.19 22.5 117.5 22.5H115ZM101.25 38.75V27.5L118.75 27.5V38.75C118.75 39.4404 118.19 40 117.5 40H102.5C101.81 40 101.25 39.4404 101.25 38.75ZM106.207 32.6503L106.204 32.6619L106.202 32.6679C106.202 32.6692 106.202 32.6698 106.202 32.6697L106.203 32.6671C106.027 33.2527 105.414 33.5924 104.823 33.4274C104.224 33.2603 103.874 32.6398 104.041 32.0414L105.125 32.3438C104.041 32.0414 104.042 32.0408 104.042 32.0402L104.042 32.0391L104.043 32.0367L104.044 32.0315L104.048 32.0195L104.057 31.9894C104.064 31.9667 104.073 31.9387 104.085 31.9061C104.108 31.8411 104.142 31.7567 104.187 31.6593C104.276 31.4669 104.419 31.21 104.637 30.9497C105.092 30.4062 105.859 29.875 107 29.875C108.324 29.875 109.098 30.7613 109.439 31.5689C109.881 32.6165 109.511 33.5597 109.066 34.2088C108.8 34.5955 108.463 34.9481 108.14 35.25H108.75C109.372 35.25 109.875 35.7537 109.875 36.375C109.875 36.9963 109.372 37.5 108.75 37.5H105.125C104.655 37.5 104.234 37.2073 104.07 36.7662C103.907 36.3251 104.035 35.8288 104.391 35.522L106.111 34.0436C106.579 33.6408 106.972 33.2836 107.21 32.9357C107.434 32.6102 107.389 32.4982 107.366 32.4435C107.306 32.3012 107.238 32.22 107.188 32.1804C107.153 32.1524 107.106 32.125 107 32.125C106.641 32.125 106.47 32.2657 106.363 32.3941C106.299 32.4697 106.255 32.5487 106.227 32.6082C106.214 32.6368 106.206 32.6574 106.203 32.666L106.203 32.6671L106.204 32.6619L106.205 32.6603L106.206 32.6541L106.207 32.6503ZM111.5 29.875C110.879 29.875 110.375 30.3787 110.375 31C110.375 31.6213 110.879 32.125 111.5 32.125H112.861L111.105 35.9006C110.843 36.4639 111.087 37.133 111.651 37.3951C112.214 37.6571 112.883 37.4128 113.145 36.8495L115.645 31.4745C115.807 31.1261 115.78 30.719 115.574 30.3951C115.367 30.0711 115.009 29.875 114.625 29.875H111.5Z" fill="white"/>
<path fill-rule="evenodd" clip-rule="evenodd" d="M193.75 17.5C194.44 17.5 195 18.0596 195 18.75V20C199.142 20 202.5 23.3579 202.5 27.5V33.75C202.5 35.1307 201.381 36.25 200 36.25H191.25V40C191.25 40.6904 190.69 41.25 190 41.25C189.31 41.25 188.75 40.6904 188.75 40V36.25H187.5H185H182.5H180C178.619 36.25 177.5 35.1307 177.5 33.75V25C177.5 22.2386 179.739 20 182.5 20H192.5V18.75C192.5 18.0596 193.06 17.5 193.75 17.5ZM190 33.75H200V27.5C200 24.7386 197.761 22.5 195 22.5V26.5845C195.747 27.0167 196.25 27.8246 196.25 28.75C196.25 30.1307 195.131 31.25 193.75 31.25C192.369 31.25 191.25 30.1307 191.25 28.75C191.25 27.8246 191.753 27.0167 192.5 26.5845V22.5H186.831C187.256 23.2358 187.5 24.09 187.5 25.0008V25.0183V25.0358V25.0533V25.0707V25.0882V25.1056V25.123V25.1404V25.1577V25.1751V25.1924V25.2098V25.2271V25.2444V25.2616V25.2789V25.2962V25.3134V25.3306V25.3478V25.365V25.3822V25.3994V25.4165V25.4336V25.4508V25.4679V25.4849V25.502V25.5191V25.5361V25.5532V25.5702V25.5872V25.6042V25.6212V25.6381V25.6551V25.672V25.689V25.7059V25.7228V25.7397V25.7566V25.7734V25.7903V25.8071V25.8239V25.8408V25.8576V25.8743V25.8911V25.9079V25.9246V25.9414V25.9581V25.9748V25.9916V26.0082V26.0249V26.0416V26.0583V26.0749V26.0916V26.1082V26.1248V26.1414V26.158V26.1746V26.1912V26.2078V26.2243V26.2409V26.2574V26.2739V26.2904V26.307V26.3235V26.3399V26.3564V26.3729V26.3893V26.4058V26.4222V26.4387V26.4551V26.4715V26.4879V26.5043V26.5207V26.5371V26.5534V26.5698V26.5862V26.6025V26.6188V26.6352V26.6515V26.6678V26.6841V26.7004V26.7167V26.733V26.7493V26.7655V26.7818V26.798V26.8143V26.8305V26.8467V26.863V26.8792V26.8954V26.9116V26.9278V26.944V26.9602V26.9764V26.9925V27.0087V27.0249V27.041V27.0572V27.0733V27.0894V27.1056V27.1217V27.1378V27.1539V27.17V27.1862V27.2023V27.2183V27.2344V27.2505V27.2666V27.2827V27.2988V27.3148V27.3309V27.3469V27.363V27.379V27.3951V27.4111V27.4272V27.4432V27.4592V27.4753V27.4913V27.5073V27.5233V27.5393V27.5553V27.5714V27.5874V27.6034V27.6194V27.6354V27.6513V27.6673V27.6833V27.6993V27.7153V27.7313V27.7473V27.7632V27.7792V27.7952V27.8112V27.8271V27.8431V27.8591V27.875V27.891V27.9069V27.9229V27.9389V27.9548V27.9708V27.9867V28.0027V28.0187V28.0346V28.0506V28.0665V28.0825V28.0984V28.1144V28.1303V28.1463V28.1622V28.1782V28.1942V28.2101V28.2261V28.242V28.258V28.2739V28.2899V28.3058V28.3218V28.3378V28.3537V28.3697V28.3857V28.4016V28.4176V28.4336V28.4495V28.4655V28.4815V28.4975V28.5134V28.5294V28.5454V28.5614V28.5774V28.5934V28.6094V28.6253V28.6413V28.6573V28.6733V28.6894V28.7054V28.7214V28.7374V28.7534V28.7694V28.7855V28.8015V28.8175V28.8336V28.8496V28.8656V28.8817V28.8977V28.9138V28.9299V28.9459V28.962V28.9781V28.9942V29.0102V29.0263V29.0424V29.0585V29.0746V29.0907V29.1068V29.123V29.1391V29.1552V29.1714V29.1875V29.2036V29.2198V29.2359V29.2521V29.2683V29.2845V29.3006V29.3168V29.333V29.3492V29.3654V29.3817V29.3979V29.4141V29.4303V29.4466V29.4628V29.4791V29.4954V29.5116V29.5279V29.5442V29.5605V29.5768V29.5931V29.6094V29.6258V29.6421V29.6584V29.6748V29.6911V29.7075V29.7239V29.7403V29.7567V29.7731V29.7895V29.8059V29.8223V29.8388V29.8552V29.8717V29.8881V29.9046V29.9211V29.9376V29.9541V29.9706V29.9871V30.0037V30.0202V30.0368V30.0533V30.0699V30.0865V30.1031V30.1197V30.1363V30.1529V30.1696V30.1862V30.2029V30.2195V30.2362V30.2529V30.2696V30.2863V30.3031V30.3198V30.3366V30.3533V30.3701V30.3869V30.4037V30.4205V30.4373V30.4542V30.471V30.4879V30.5047V30.5216V30.5385V30.5554V30.5724V30.5893V30.6062V30.6232V30.6402V30.6572V30.6742V30.6912V30.7082V30.7253V30.7423V30.7594V30.7765V30.7936V30.8107V30.8278V30.845V30.8621V30.8793V30.8965V30.9137V30.9309V30.9481V30.9654V30.9826V30.9999V31.0172V31.0345V31.0518V31.0692V31.0865V31.1039V31.1213V31.1387V31.1561V31.1735V31.191V31.2084V31.2259V31.2434V31.2609V31.2784V31.296V31.3135V31.3311V31.3487V31.3663V31.384V31.4016V31.4193V31.4369V31.4546V31.4724V31.4901V31.5078V31.5256V31.5434V31.5612V31.579V31.5968V31.6147V31.6326V31.6505V31.6684V31.6863V31.7043V31.7222V31.7402V31.7582V31.7762V31.7943V31.8124V31.8304V31.8485V31.8667V31.8848V31.9029V31.9211V31.9393V31.9575V31.9758V31.994V32.0123V32.0306V32.0489V32.0673V32.0856V32.104V32.1224V32.1408V32.1593V32.1777V32.1962V32.2147V32.2332V32.2518V32.2703V32.2889V32.3075V32.3262V32.3448V32.3635V32.3822V32.4009V32.4196V32.4384V32.4572V32.476V32.4948V32.5137V32.5325V32.5514V32.5704V32.5893V32.6083V32.6272V32.6462V32.6653V32.6843V32.7034V32.7225V32.7416V32.7608V32.78V32.7992V32.8184V32.8376V32.8569V32.8762V32.8955V32.9148V32.9342V32.9536V32.973V32.9924V33.0119V33.0314V33.0509V33.0704V33.09V33.1096V33.1292V33.1488V33.1685V33.1881V33.2079V33.2276V33.2474V33.2671V33.287V33.3068V33.3267V33.3466V33.3665V33.3864V33.4064V33.4264V33.4464V33.4665V33.4865V33.5066V33.5268V33.5469V33.5671V33.5873V33.6076V33.6278V33.6481V33.6684V33.6888V33.7092V33.7296V33.75H190ZM185 31.25V33.75H182.5H180V31.25V25C180 23.6193 181.119 22.5 182.5 22.5C183.881 22.5 185 23.6201 185 25.0008V31.25Z" fill="white"/>
<path fill-rule="evenodd" clip-rule="evenodd" d="M262.564 18.3548C262.346 19.0097 262.7 19.7176 263.355 19.9359L271.047 22.5001H261.25C259.179 22.5001 257.5 24.179 257.5 26.2501V36.2501C257.5 38.3211 259.179 40.0001 261.25 40.0001V41.2501C261.25 41.9404 261.81 42.5001 262.5 42.5001L277.5 42.5001C277.832 42.5001 278.149 42.3684 278.384 42.1339C278.618 41.8995 278.75 41.5816 278.75 41.2501V40.0001C280.821 40.0001 282.5 38.3211 282.5 36.2501V26.2501C282.5 24.2536 280.94 22.6216 278.972 22.5065L264.145 17.5642C263.49 17.3459 262.782 17.6999 262.564 18.3548ZM277.504 37.5001C277.502 37.5001 277.501 37.5001 277.5 37.5001C277.499 37.5001 277.498 37.5001 277.497 37.5001H262.504C262.502 37.5001 262.501 37.5001 262.5 37.5001C262.499 37.5001 262.498 37.5001 262.497 37.5001H261.25C260.56 37.5001 260 36.9404 260 36.2501V26.2501C260 25.5597 260.56 25.0001 261.25 25.0001H278.721C278.738 25.0005 278.754 25.0005 278.771 25.0002C279.452 25.0113 280 25.5666 280 26.2501V36.2501C280 36.9404 279.44 37.5001 278.75 37.5001H277.504ZM277.5 26.2501C276.81 26.2501 276.25 26.8097 276.25 27.5001C276.25 28.1904 276.81 28.7501 277.5 28.7501C278.19 28.7501 278.75 28.1904 278.75 27.5001C278.75 26.8097 278.19 26.2501 277.5 26.2501ZM276.25 31.2501C276.25 30.5597 276.81 30.0001 277.5 30.0001C278.19 30.0001 278.75 30.5597 278.75 31.2501C278.75 31.9404 278.19 32.5001 277.5 32.5001C276.81 32.5001 276.25 31.9404 276.25 31.2501ZM263.75 26.2501C262.369 26.2501 261.25 27.3694 261.25 28.7501V33.7501C261.25 35.1308 262.369 36.2501 263.75 36.2501H272.5C273.881 36.2501 275 35.1308 275 33.7501V28.7501C275 27.3694 273.881 26.2501 272.5 26.2501H263.75ZM263.75 28.7501H266.25H270H272.5V31.2501V33.7501H270H266.25H263.75V31.2501V28.7501Z" fill="white"/>
<path fill-rule="evenodd" clip-rule="evenodd" d="M340 18.75C338.619 18.75 337.5 19.8693 337.5 21.25V35C337.5 36.3807 338.619 37.5 340 37.5H346.25L344.25 39C343.698 39.4142 343.586 40.1977 344 40.75C344.414 41.3023 345.198 41.4142 345.75 41L350 37.8125L354.25 41C354.802 41.4142 355.586 41.3023 356 40.75C356.414 40.1977 356.302 39.4142 355.75 39L353.75 37.5H360C361.381 37.5 362.5 36.3807 362.5 35V21.25C362.5 19.8693 361.381 18.75 360 18.75H340ZM349.987 35H350.015H357.5H360V32.5V23.75V21.25H357.5H342.5H340V23.75V32.5V35H342.5H349.985H349.987ZM345.938 26.625C346.8 26.625 347.5 27.3246 347.5 28.1875C347.5 29.0504 346.8 29.75 345.938 29.75C345.075 29.75 344.375 29.0504 344.375 28.1875C344.375 27.3246 345.075 26.625 345.938 26.625ZM342.5 28.1875C342.5 30.086 344.039 31.625 345.938 31.625C347.836 31.625 349.375 30.086 349.375 28.1875C349.375 26.289 347.836 24.75 345.938 24.75C344.039 24.75 342.5 26.289 342.5 28.1875ZM352.5 26.875C353.19 26.875 353.75 27.4346 353.75 28.125V31.25C353.75 31.9404 353.19 32.5 352.5 32.5C351.81 32.5 351.25 31.9404 351.25 31.25V28.125C351.25 27.4346 351.81 26.875 352.5 26.875ZM357.5 25C357.5 24.3096 356.94 23.75 356.25 23.75C355.56 23.75 355 24.3096 355 25V31.25C355 31.9404 355.56 32.5 356.25 32.5C356.94 32.5 357.5 31.9404 357.5 31.25V25Z" fill="white"/>
<path fill-rule="evenodd" clip-rule="evenodd" d="M432.077 17.5049C432.799 17.4437 433.436 17.9612 433.499 18.6608L433.728 21.1943C433.791 21.8939 433.257 22.5106 432.535 22.5718C431.813 22.633 431.176 22.1155 431.113 21.4159L430.884 18.8825C430.821 18.1829 431.355 17.5661 432.077 17.5049ZM438.753 22.1085C439.219 21.5705 439.147 20.7685 438.591 20.3171C438.036 19.8656 437.208 19.9358 436.742 20.4738L435.055 22.4219C434.589 22.9599 434.662 23.7619 435.217 24.2134C435.772 24.6648 436.6 24.5946 437.066 24.0566L438.753 22.1085ZM434.097 26.7635C434.265 26.2693 434.105 25.7257 433.694 25.3913C433.283 25.0568 432.702 24.999 432.229 25.2452L418.191 32.5526C417.741 32.7871 417.472 33.254 417.502 33.7487C417.533 34.2434 417.857 34.6758 418.334 34.8566L420.501 35.6794L418.527 37.959C418.061 38.497 418.133 39.299 418.688 39.7504L421.705 42.2025C422.26 42.6539 423.088 42.5837 423.553 42.0458L425.528 39.7661L426.74 41.6912C427.007 42.1143 427.503 42.3487 428.011 42.292C428.519 42.2353 428.947 41.8976 429.107 41.4269L434.097 26.7635ZM423.159 33.9572L421.933 33.4917L430.574 28.9937L427.503 38.0197L426.817 36.9307C426.597 36.5813 426.216 36.3559 425.795 36.3252C425.373 36.2945 424.963 36.4622 424.691 36.7758L422.386 39.437L421.381 38.6196L423.686 35.9584C423.957 35.6448 424.056 35.2237 423.952 34.827C423.848 34.4303 423.553 34.1065 423.159 33.9572ZM441.073 24.981C441.795 24.9197 442.432 25.4373 442.495 26.1369C442.558 26.8364 442.024 27.4532 441.302 27.5144L438.687 27.7361C437.965 27.7973 437.328 27.2797 437.265 26.5801C437.202 25.8806 437.736 25.2638 438.458 25.2026L441.073 24.981Z" fill="white"/>
</svg>
